<svg viewBox="0 0 64 64" xmlns="http://www.w3.org/2000/svg">
  <defs>
    <linearGradient id="bg" x1="0" y1="0" x2="64" y2="64" gradientUnits="userSpaceOnUse">
      <stop stop-color="#2d3a4f"/>
      <stop offset="1" stop-color="#1a1f2e"/>
    </linearGradient>
    <linearGradient id="spark" x1="0" y1="0" x2="0" y2="1" gradientUnits="objectBoundingBox">
      <stop stop-color="#ffb066"/>
      <stop offset="1" stop-color="#ff6d00"/>
    </linearGradient>
  </defs>
  <rect width="64" height="64" rx="16" fill="url(#bg)"/>

  <!-- Document with folded corner -->
  <path d="M18 14h20l10 10v26a2 2 0 0 1-2 2H18a2 2 0 0 1-2-2V16a2 2 0 0 1 2-2z" fill="#ffffff"/>
  <path d="M38 14v10h10L38 14z" fill="#cbd5e1"/>

  <!-- PDF letters on the document -->
  <text x="32" y="40" text-anchor="middle" font-family="Inter, system-ui, sans-serif" font-size="12" font-weight="900" fill="#1a1f2e" letter-spacing="-0.5">PDF</text>

  <!-- Orange spark/bolt overlay - the "tools" magic -->
  <path d="M42 28l-7 11h5l-2 9 9-13h-5l3-7z" fill="url(#spark)" stroke="#1a1f2e" stroke-width="1" stroke-linejoin="round"/>
</svg>
