<svg viewBox="0 0 64 64" xmlns="http://www.w3.org/2000/svg">
  <defs>
    <linearGradient id="bg" x1="0" y1="0" x2="64" y2="64" gradientUnits="userSpaceOnUse">
      <stop stop-color="#243044"/>
      <stop offset="1" stop-color="#1a1f2e"/>
    </linearGradient>
    <linearGradient id="accent" x1="0" y1="0" x2="64" y2="64" gradientUnits="userSpaceOnUse">
      <stop stop-color="#ff8a3d"/>
      <stop offset="1" stop-color="#ff6d00"/>
    </linearGradient>
  </defs>
  <rect width="64" height="64" rx="14" fill="url(#bg)"/>
  <path d="M20 14h18l10 10v28a2 2 0 0 1-2 2H20a2 2 0 0 1-2-2V16a2 2 0 0 1 2-2z" fill="#ffffff"/>
  <path d="M38 14v10h10" fill="none" stroke="#243044" stroke-width="1.5" stroke-linejoin="round"/>
  <path d="M38 14v10h10z" fill="rgba(36,48,68,0.15)"/>
  <path d="M24 30h10M24 36h14M24 42h8" stroke="url(#accent)" stroke-width="2.5" stroke-linecap="round"/>
  <circle cx="48" cy="48" r="9" fill="url(#accent)"/>
  <path d="M48 44v6.5M48 52.5v0.5" stroke="#fff" stroke-width="2" stroke-linecap="round"/>
</svg>
